# xmcd
#
# Track frame offsets:
#	187
#	10225
#	22500
#	38937
#	49512
#	55212
#	72450
#
# Disc length: 1125 seconds
#
# Revision: 1
# Processed by: cddbd v1.5.1PL0 Copyright (c) Steve Scherf et al.
# Submitted via: CDex 1.50Beta5
#
DISCID=4f046307
DTITLE=難波弘之 - PLUS MIX
DYEAR=1900
DGENRE=Rock
TTITLE0=Sbterranean Canal
TTITLE1=Bloody River
TTITLE2=In the Memory
TTITLE3=Fly with Me
TTITLE4=So Much for Today
TTITLE5=Feena
TTITLE6=Sigh and Tear
EXTD=from Falcom Special Box '89
EXTT0=
EXTT1=
EXTT2=
EXTT3=
EXTT4=
EXTT5=
EXTT6=
PLAYORDER=
